# xmcd
#
# Track frame offsets: 
#        150
#        21423
#        39638
#        64473
#        81339
#        104605
#        122581
#        144412
#        160340
#        176935
#        200016
#        221588
#        240442
#        254481
#        277918
#        295478
#        315552
#        332070
#
# Disc length: 4767 seconds
#
# Revision: 0
# Processed by: cddbd v1.5.2PL0 Copyright (c) Steve Scherf et al.
# Submitted via: ExactAudioCopy v1.3
#
DISCID=1d129d12
DTITLE=Various Artist - Akella Presents - vol.191 - Electric Blues  C
DTITLE=D1
DYEAR=2019
DGENRE=Blues
TTITLE0=Decio Caetano - Thank You, Lord
TTITLE1=The Alabama Lovesnakes - Daddy's Gone Shooting
TTITLE2=Haranni Hurricanes - You Hurt Me
TTITLE3=Chris Kramer and Beatbox 'n' Blues - Bo
TTITLE4=Billy Price - Lose My Number
TTITLE5=Cliff Stevens - Say What You Mean
TTITLE6=Trevor Finlay - Poor Lucille
TTITLE7=Dave Plaehn - Need a Woman
TTITLE8=Mark Cameron - Trouble Brewin'
TTITLE9=Dave P.Moore - Fort Necessity
TTITLE10=Mungo Jerry - Got To Have A Plan
TTITLE11=Bobby Rush - Get Out of Here (Dog Named Bo)
TTITLE12=Billy Branch and The Sons Of Blues - Nobody But You
TTITLE13=Jakez And The Jacks - Full of Emptiness
TTITLE14=Zac Harmon - Smoke and Mirrors
TTITLE15=Michael Barclay - Desperate Man
TTITLE16=Dario Lombardo and the Blues Gang - Searchin' for Gold
TTITLE17=The Moon Dogs - Travelling Show
EXTD=
EXTT0=
EXTT1=
EXTT2=
EXTT3=
EXTT4=
EXTT5=
EXTT6=
EXTT7=
EXTT8=
EXTT9=
EXTT10=
EXTT11=
EXTT12=
EXTT13=
EXTT14=
EXTT15=
EXTT16=
EXTT17=
PLAYORDER=
